<svg xmlns="http://www.w3.org/2000/svg" fill="currentColor" viewBox="0 0 1260 840"><path d="M635.7 140.1c-49.1 4.1-86 38-94.8 86.9-1.9 10.4-1.6 36.2.5 46.9 11 56 53 88.6 108.3 84A68 68 0 0 0 695 337c17.8-17.8 22-29.3 13.9-38.5-6-6.8-12.5-6.5-24.1.9a57 57 0 0 1-72.3-8.3 74 74 0 0 1-19.7-54.1c.1-34.9 18.6-57.4 47.2-57.4 12.3-.1 17.7 2.7 29.5 14.8 10.3 10.7 16.1 13.2 23.9 10.6 10.5-3.4 13.4-9.8 11.8-26.3-1.4-15-2.5-18.6-7.5-24.3-7.7-8.8-21.1-13-47.2-14.8-2.7-.2-9.4 0-14.8.5m-323.8 6c-10 5.8-10.1 15.1-.6 29.8 9 13.6 9 11.3-.3 73.1-8.6 56.5-9.7 61.3-16.5 71.1-11.2 16.1-11.3 24.3-.5 31.6 5.1 3.5 49.3 3.5 55.4 0 9.6-5.5 10.3-17.3 1.7-27.6-9.9-11.8-10.9-20.2-6.6-52.6 2.7-20.9 3.8-24.1 7.3-21.9 1 .7 8.5 19.5 19.3 48.8a766 766 0 0 0 19.5 49.7c6.3 7 18.9 6.3 23.7-1.3.8-1.3 8.1-21.4 16.2-44.8 18.5-53.4 18.3-52.7 20-53.4 1.2-.4 4.5 1.7 4.5 2.9l3.5 21.4c6 36.7 5.8 42.2-1.8 54.1q-10.2 15.6 3.3 24.7c3.2 2.3 3.9 2.3 32 2.3s28.8 0 32-2.3c9.4-6.3 10.2-14.6 2.7-27.2a88 88 0 0 1-7.2-15.8c-2.8-8.8-17.5-106.9-17.5-116.8q0-10.2 6.7-20c6.3-9.1 6.5-17.5.6-23.1-4.5-4.3-7.2-4.8-27.9-4.8-21.7 0-23.5.4-30.4 6.6-5.6 5.1-4.8 3.2-23 56-9 25.8-16.9 47.6-17.6 48.4-3 3.2-4.8-.8-21.4-48.1-17.9-51-18.4-52.2-23.3-57.2s-9-5.7-30.8-5.7c-17.8 0-19.7.2-23 2.1m439.2-.3a14 14 0 0 0-7.8 11.5c-.7 6.3 0 8.4 5.4 16.3 5.8 8.6 8.3 15 8.3 21.7 0 6.5-14.5 102.2-16.6 109.7a85 85 0 0 1-11.9 22.4c-6.1 8.5-4.3 19.3 4 24.1 6.3 3.7 50.2 3.9 55.5.2 10.1-6.9 10.5-17.3 1.1-28.5-9.3-11-10.2-17.5-6.6-47.4 2.5-20.2 4.1-26.8 6.3-26.8 2.3.1 4.9 6 20.8 49.1 9.6 26.1 18.1 48.3 18.9 49.5 4.8 7.4 20.5 6.9 24.6-.8.6-1.2 8.6-23.4 17.6-49.3s17-47.7 17.8-48.5c3.1-3.1 4.7.9 8.1 21.2 6.3 36.9 6.2 44.4-1 56.5q-10.6 18 3.5 25.4c6.5 3.3 59.8 2.5 64.7-.9 7.8-5.6 8.7-14.3 2.5-24.8-9.3-15.8-9.6-17.1-18.8-81.3-8.5-58.8-8.5-59.3-2.2-69.9 6-9.9 6.7-11.7 6.7-16.3 0-5.6-3.1-10.6-8-13.2-3.1-1.5-6-1.7-24.6-1.5l-21.1.3-4.8 3c-7.2 4.4-9.6 8.7-17.5 31.5-28.7 82.9-26.3 76.5-28.9 76.5-2.3 0-3.3-2.4-19.1-47.5-20.2-57.7-20.6-58.4-30.2-62.4-5.8-2.4-41.9-2.3-46.7.2m-466 366.3c-54.8 4.9-91.1 48-91.1 108.3 0 68.9 48.1 115.1 114 109.5 53.1-4.6 88.4-44.8 90.7-103.4 2.2-54.6-27-98.7-73.9-111.5-5.9-1.6-27.7-4.4-29.8-3.9-.3.1-4.7.6-9.9 1m25.5 39.6c19.4 7.9 33.1 33.3 35.2 65.3 3.1 45.2-11.3 72-40.8 76.2a42 42 0 0 1-41.4-18.1c-21.9-29.7-22.7-89.7-1.6-113.4a44 44 0 0 1 48.6-10m605.8-39.6c-51.6 4.6-85.4 40.8-90.6 96.7-5.9 64.6 32.9 116 91.5 121.1 66.2 5.7 112.7-39 112.7-108.4 0-69.2-47.8-115.3-113.6-109.4m24.8 39.4c24.4 9.8 40.4 49.1 35.9 88.5-3.7 32.6-16.9 49.8-41 53.2-26 3.6-45.6-13.5-54.9-48.1-4-14.8-3.9-47.4.1-60.6 4.8-15.4 12.6-26.4 22.7-31.5a48 48 0 0 1 37.2-1.5M30.5 518.3c-8.4 4.7-10.2 13.4-4.8 24 7.1 14.2 6.7 9.9 7.1 75.2.3 65.7.2 66.7-6.3 80.3a53 53 0 0 0-4 10.6c-.9 4.6 2.3 11.6 6.6 14.7l3.4 2.4 62.5.3c44.9.2 63.6 0 66.5-.8 8.1-2.4 13.7-9 15-17.7 1.7-11.1 3.2-43.7 2.2-47.5-2.9-11.7-17.4-15.6-26.7-7.2-3.2 2.9-4.4 5.2-7 13.5-6.4 19.9-11.3 23.2-35.6 23.7-20.1.5-22.9-.2-24.5-6-.7-2.9-.9-22.1-.7-63.2.5-65.5.2-62.5 7.5-76.9 5.9-11.9 4.3-20.9-4.7-25.5-6.8-3.4-50.3-3.4-56.5.1m391.5-.1c-9 4.6-10.6 13.6-4.6 25.5 7.3 14.7 7.1 12.1 7.1 77.3 0 64.4.3 61-6.7 76.3-6.2 13.7-4.9 22.1 4.4 26.8 3.6 1.9 5.5 2 23.1 1.7 22-.3 24.2-1.1 27.9-9.5 2.3-5.3 1.9-8.1-2.7-18.3-6.3-13.8-6.6-16-6.3-53.1l.3-33.4 2.6-.3c2.3-.3 5.7 4.3 38.5 50.4 19.7 27.9 38.1 53.1 40.7 56 7.2 7.9 13.6 10.7 23.6 10.3 9.8-.5 15-3.7 19.4-11.9l2.7-5.2v-71.7c0-80 0-80.2 6.5-94.2 6.4-13.7 5.8-20-2.8-26.3-4.4-3.2-42-3.2-46.4 0-8.6 6.3-9.2 12.6-2.8 26.3 5.8 12.7 6.5 17.6 6.5 49.2 0 28.1-.2 29.6-4.6 28.7-1-.2-16.6-21.7-35-48.3a1076 1076 0 0 0-37.7-52.2c-6-5.6-9.3-6.3-30.7-6.3-17.3 0-18.9.2-23 2.2m205.5-.2q-13.7 6.9-5 25.1c7.1 15.2 7 13.9 7 77.9s.1 62.7-7 77.9q-8.4 17.7 4.7 25.1c3.9 2.2 4 2.2 46.6 1.7 45.2-.5 48.9-.8 64.2-5.8a95 95 0 0 0 66.9-82.4c6.7-55.1-19.4-100.5-66.4-115.3-17.3-5.4-18.3-5.5-64-5.9-41.6-.4-43.1-.3-47 1.7m84.2 36.6a59 59 0 0 1 40.5 43.1c3 11.2 3 35.4 0 46.6-7.7 28.3-28.1 44.5-56.7 45-16.2.3-14.5 8.1-14.5-67.5 0-66.5 0-67 4.3-68.9a82 82 0 0 1 26.4 1.7m341.8-36.6c-9.2 4.6-10.9 13.2-5.1 24.8 7.3 14.6 7.1 12 7.1 78.2s.2 63.6-7.1 78.2c-5.5 11-3.8 19.9 4.7 24.7 5.7 3.2 41.1 2.8 45.5-.5 7.7-5.7 8.9-13.1 4-23.9-7.3-15.7-7-13.7-7.4-51.3-.4-35.8-.2-37.2 3.8-37.2 1.3 0 13.3 16.2 38.1 51.2 20 28.2 38.6 53.6 41.4 56.3 13.2 13.3 32.2 12.9 41.2-.7l2.8-4.2.5-76.5c.6-85.2.2-79.6 7.7-94.5 5.7-11.4 3.8-20.1-5.4-24.6-6.2-3.1-40.6-2.7-44.9.6-8 5.9-9.1 13.6-3.7 24.5 6.8 13.3 6.7 12.7 7.1 45.3.4 33.2.3 34.6-3.3 34.6-2 0-7.2-6.9-35-47.3-33.8-48.8-40-56.6-47.1-58.6-7.4-2.1-40.3-1.4-44.9.9"/></svg>