<svg viewBox="0 0 1000 567" xmlns="http://www.w3.org/2000/svg" width="1000" height="567">
<path d="M382 91.7v-2c1.5 0 2.5-.2 3-.4a5.4 5.4 0 0 0 1.7-1.5l4.7-6.3 8.4-11.7-5.5-9.4-2.8-4.3a33.4 33.4 0 0 0-3.8-4.6c-.4-.4-.9-.7-1.2-.8s-1.6-.2-3.5-.2v-1.8l9-1.5a10.1 10.1 0 0 1 2.3 2.1c1 1.3 2.3 3.4 4 6.5l5.3 9c6.4-9 9.7-14 9.9-14.8v-2.5a134 134 0 0 0 8.3 0v1.9c-1.3 0-2 .1-2.4.2l-1 .4-1.6 1.7-4 5.2-5.4 7.3-2.3 3.1 10.6 17a34 34 0 0 0 3 4.5c.3.3.7.5 1 .6l2.6.2v2a173 173 0 0 0-9.2 0 113.5 113.5 0 0 1-3.4-5.4l-8.2-14-4 5.6a90.2 90.2 0 0 0-7 11.7v2.2l-4.4-.1h-4zm69.1-4.8-1 2.2-3.1 1.8a20 20 0 0 1-7.3 1.5 16 16 0 0 1-7.5-1.7 12 12 0 0 1-5.1-5.1 16.5 16.5 0 0 1-1.9-8c0-2.4.3-4.5 1-6.4.6-2 1.4-3.4 2.2-4.3.6-.7 1.5-1.4 2.8-2.3a19.8 19.8 0 0 1 3.8-2 13.7 13.7 0 0 1 5.3-1c2.3 0 4.4.5 6.3 1.5 1.9 1.1 3.3 2.5 4.1 4.4a15.6 15.6 0 0 1 1.2 8.3 88.8 88.8 0 0 1-10.7.8h-10c0 3 .5 5.4 1.5 7.2a9.3 9.3 0 0 0 4.1 4 11.8 11.8 0 0 0 9.2.8c1.2-.4 2.8-1.2 4.6-2.3l.5.6zm-20-12.8 3.4.2a236.7 236.7 0 0 0 11.8 0v-1.1c0-3.3-.6-5.7-2-7.3a6.7 6.7 0 0 0-5.3-2.3 7 7 0 0 0-5.6 2.6c-1.5 1.6-2.2 4.3-2.2 8zm36.4 18-1.3-4.4-2.9-9.6a259 259 0 0 0-4.2-12.6c-.3-.4-.7-.7-1-.8s-1.5-.4-3-.5v-1.8a129 129 0 0 0 15 0v1.8l-3.7.2c-.4.1-.7.3-.8.5-.2.2-.3.4-.3.7 0 .5.3 1.8.9 3.9l2.9 10 1.7 5.5 2.4-5.5 4.6-10.2a161.8 161.8 0 0 0 3-7.3h1.6c1.3 3.8 2.3 6.3 2.8 7.5l3.5 9 2.8 6.9 2.3-6.2a151.1 151.1 0 0 0 4.3-13.3c0-.6-.2-1-.6-1.2-.4-.3-1.8-.5-4-.5v-1.8a160.2 160.2 0 0 0 12.4 0v1.8a7 7 0 0 0-2.4.3 3 3 0 0 0-1.1 1c-.5.7-1.4 2.4-2.5 5l-3.3 7.8-1.4 3.5-2.4 6.3a36 36 0 0 0-1.3 4h-3l-1.4-4-7.1-17.8-3 6.4-3.5 7.9-2 4.6-1 2.8h-3zm42-14.7c0-4.7 1.4-8.5 4.4-11.4 3-3 6.7-4.4 11.4-4.4 4.3 0 7.9 1.3 10.6 4S540 72 540 76.4c0 3-.7 5.8-2.1 8.3s-3.4 4.5-6 6-5.4 2-8.5 2a14 14 0 0 1-6.1-1.2 12.2 12.2 0 0 1-4-3 14.6 14.6 0 0 1-2.4-3.8 18.4 18.4 0 0 1-1.5-7.2zm5.8-2.4c0 2.6.5 5.2 1.3 7.8.8 2.7 2 4.6 3.7 5.8a8.5 8.5 0 0 0 5.2 1.8 7.6 7.6 0 0 0 6-2.8c1.7-2 2.5-4.9 2.5-8.8a23 23 0 0 0-1.5-8.6c-1-2.4-2.2-4-3.6-5a8.8 8.8 0 0 0-5-1.6 7.8 7.8 0 0 0-6.2 2.8c-1.6 1.9-2.4 4.7-2.4 8.6zm28.3 16.7v-1.8a58 58 0 0 0 4.6-.4c.2-.1.3-.3.4-.6.2-.5.4-1.2.4-2.2l.2-8.7v-3.7l-.1-5.4a6.8 6.8 0 0 0-.3-2.1c-.1-.3-.4-.4-.7-.6l-4-.1v-1.8a33 33 0 0 0 10-2.6s.2 0 .3.2l.1.5v.5l-.2 5.8c1-1 1.8-2.1 2.6-3.2a15.5 15.5 0 0 1 1.7-2 7.4 7.4 0 0 1 2.1-1.3 6.4 6.4 0 0 1 5.1 0l.2.5a79.7 79.7 0 0 0-.5 7.3h-1.4a5.6 5.6 0 0 0-1.7-2.2 4 4 0 0 0-2.3-.7c-1.6 0-3 .7-4.1 2-1.1 1.3-1.7 3.3-1.7 6v3.1a288.2 288.2 0 0 0 .3 10c0 .3.2.6.3.8l.7.3c.6.2 2.3.4 5 .6v1.8a251.7 251.7 0 0 0-17 0zm25.3 0v-1.8h3c.4 0 .7-.1 1-.3l.5-.5c.2-.4.4-1.1.4-2.2l.2-9V65.2a360.3 360.3 0 0 0-.5-15 .9.9 0 0 0-.5-.3c-.3-.2-1.7-.3-4.3-.3v-1.8a35.6 35.6 0 0 0 10.4-2.4c.1 0 .3 0 .3.2l.2.4v.6l-.1 1-.2 9.5v29.7c.1 1 .2 1.8.5 2.3 0 .2.2.4.3.5l.8.3 3.5.1v1.8a141.6 141.6 0 0 0-15.5 0zm44.5-4.8-1 2.2a19.5 19.5 0 0 1-10.5 3.3c-2.7 0-5.2-.5-7.4-1.7s-4-2.8-5.2-5.1-1.9-5-1.9-8c0-2.4.4-4.5 1-6.4.7-2 1.4-3.4 2.2-4.3.6-.7 1.6-1.4 2.8-2.3a19.8 19.8 0 0 1 3.8-2 13.7 13.7 0 0 1 5.3-1c2.4 0 4.5.5 6.3 1.5a9.7 9.7 0 0 1 4.2 4.4 14.2 14.2 0 0 1 1.3 6.2c0 .5 0 1.2-.2 2-1.5.4-2.8.6-4 .6a90.2 90.2 0 0 1-6.7.3h-10c0 3 .6 5.4 1.6 7.2a9.3 9.3 0 0 0 4 4 11.8 11.8 0 0 0 9.2.8 24.6 24.6 0 0 0 4.7-2.3l.5.6zm-20-12.8 3.3.2a236.7 236.7 0 0 0 11.8 0v-1.1c0-3.3-.6-5.7-2-7.3a6.7 6.7 0 0 0-5.2-2.3 7 7 0 0 0-5.7 2.6c-1.4 1.6-2.2 4.3-2.2 8zm27 17.7A100.8 100.8 0 0 0 621 79V65.1a398.2 398.2 0 0 0-.5-14.9.9.9 0 0 0-.5-.4c-.3-.2-1.7-.3-4.3-.3v-1.8a35.8 35.8 0 0 0 10.4-2.4c.1 0 .3 0 .3.2l.2.4v.6l-.1 1-.2 9.5v11l4.2-4.2a9.1 9.1 0 0 1 2.8-1.4 12.2 12.2 0 0 1 4.1-.7 10.7 10.7 0 0 1 10.1 6.1c1 2 1.5 4.2 1.5 6.5 0 1.9-.3 3.6-.8 5.2A18.2 18.2 0 0 1 646 84a8.7 8.7 0 0 1-1.6 2l-4.6 3.3a19.7 19.7 0 0 1-4.3 2.6c-1 .4-2.4.6-4 .6-1.4 0-2.7-.2-3.8-.6a14 14 0 0 1-3.8-2l-2.5 2.4-1-.4zm5.8-20v11.6c0 1 0 1.7.2 2 .1.3.5.7 1 1.1a10.5 10.5 0 0 0 6.7 2.4 8 8 0 0 0 7-3.4c1.6-2.4 2.4-5.2 2.4-8.7 0-2.4-.4-4.4-1.2-6a8.3 8.3 0 0 0-3.1-3.8 8.6 8.6 0 0 0-4.6-1.2c-2 0-3.7.6-5.3 1.7a8.1 8.1 0 0 0-3 4.2zm26.9-5.7v-1.8c4-.5 7.4-1.3 10.1-2.6l.7.5a282 282 0 0 0-.3 10.1V78l.2 8.7c0 1 .2 1.8.4 2.3 0 .2.2.4.4.5l.7.3 3.5.1v1.8a173.2 173.2 0 0 0-7.6-.2c-1.6 0-4.4 0-8.1.2v-1.8h3c.4 0 .7-.1 1-.3l.5-.5a6 6 0 0 0 .4-2.2l.2-9v-5.4c0-3-.1-5-.3-5.5a1.3 1.3 0 0 0-.7-.7c-.3-.2-1.7-.2-4.1-.2zm7.6-18.2c1 0 1.8.3 2.4 1a3.4 3.4 0 0 1 1 2.5c0 1-.3 1.7-1 2.4a3.4 3.4 0 0 1-2.4 1c-1 0-1.8-.3-2.5-1a3.4 3.4 0 0 1-1-2.4c0-1 .3-1.8 1-2.5a3.4 3.4 0 0 1 2.5-1z"/>
<path d="M355.2 10H707l-16.4 119.2H487.3v104.6L359.1 180zM505 147.3C642.5 150 720.2 248.4 720.2 353c0 112.5-93.7 203.5-216.3 203.5-118.8 0-216.7-93.8-216.7-206.3h120c0 42.5 41.3 93.2 96.9 93.2 57 0 97.2-49.3 97.2-93.8 0-56.5-47.5-90.6-96.5-90.6V147.3z"/>
<path d="M20.4 300.3v-52.5c-.1-2.6.6-7.8-1.4-9.4l-9-8h112.1c5.4 0 11.2 0 16.6.8 3.8.6 7.6 1.7 11 3.6a19.4 19.4 0 0 1 11 17v7.8c0 3.5-.6 7.2-2.7 10.2a13 13 0 0 1-3 3c3.6 3.1 5.6 7.5 5.7 12.8V297l1.4-1.8 40.2-54.9-14-9.8h74.8l45 68.8a26 26 0 0 0 2 2.3l.1-1.2v-52.5c0-3.9-.8-9.2-2.8-10.8l-6.1-6.6h212.5s-5 4.2-5.8 6.1c-.3.7.1 1.5.5 2.2.9 1.6 3 3.6 4.1 4.8l15.7 15.3 16.2-16c.7-.7 2.7-2.4 2.7-3.5v-8.9h108.5l-8 8.1c-2 1.6-1 6.8-1 9.3v46.8h32.5c4 0 10.6-.4 14.2-2.2l.2-1.6v.8V258c.1-8.1 1.1-15.8 8-20.5 3.6-2.5 7.9-4.2 12.1-5.3a59.2 59.2 0 0 1 14.8-1.8h72c5 0 10 .6 14.8 1.8 4.2 1.1 8.5 2.8 12.2 5.3 6.8 4.7 9.3 12.4 9.3 20.5v32.2c0 8-2.5 15.8-9.3 20.4-3.7 2.6-8 4.2-12.2 5.3a59.4 59.4 0 0 1-14.8 1.8h-72a59.3 59.3 0 0 1-14.7-1.8c-4.3-1-5.7-2.7-9.4-5.3a19.1 19.1 0 0 1-3.7-3.3l-2.7 10.4H573.5l11.5-8c2-1.6 1.9-7.1 2-9.7v-60.2l-44.9 45.8V296c0 4.7.2 12.5 1.4 13.7l9.6 8h-80.5l9.7-7.6c2-1.6 1.2-7.2 1.3-9.8v-14.6l-33.8-32.9-.7-.7v7.5c0 3.6-.6 7.3-2.7 10.2a13 13 0 0 1-3 3c3.6 3.1 5.6 7.5 5.7 12.8v10.7a19.4 19.4 0 0 1-11 17 34.1 34.1 0 0 1-11 3.6c-5.3.8-11.2.8-16.6.8H240.3l7-11 .5-.5a14 14 0 0 0-1.8-3.2v-.1l-4-5.5h-40.6l-6 7.9-.8 1.2 1 1.3 7.7 10H10l9-8c2-1.7 1.3-6.9 1.4-9.5zm921.9-52.5c-.1-2.5.7-7.8-1.3-9.4l-6.7-8h56.6l-6.7 8c-2 1.6-2.6 6.9-2.8 9.4v70H908l-33.4-47.6v30.1c.2 2.6-.6 7.8 1.4 9.4l10.8 8h-60.2l8.9-8c2-1.6 1.3-6.8 1.4-9.4v-52.5c-.1-2.6.6-7.8-1.4-9.4l-6-8h81.8l31 44.5v-27.1zm-167 7.7c-1.6-.5-4.6-.5-5.7-.5h-10.4c-.8 0-2.9 0-4 .3-.2.7-.2 1.9-.2 2.4v32.7l.1 2.2c1.6.5 4.6.6 5.7.5h8.8c1.1 0 4.1 0 5.7-.4l.2-2.3v-32.7c0-.5 0-1.4-.2-2.2zm-405.1 5.6H384c.7 0 2.5 0 3.6-.2l.1-1v-3l-.1-1.8a16.6 16.6 0 0 0-2.5-.1h-15v6.1zm19 31.6v-6.9c-1.7-.2-3.6-.1-5-.1h-14v7.5h12.7c1.2 0 4.3-.1 6.2-.5zm-164-19.6-4.6-7-5.2 7h9.9zM84.8 261H94c.8 0 2.6 0 3.7-.2v-7.2c-.9-.2-2-.2-2.5-.2H84.7v7.6zm13.2 31.6v-6.9c-1.7-.2-3.5-.1-5-.1h-8.2v7.5h7c1.1 0 4.2-.1 6.2-.5z"/>
<path d="m905.5 234.7 50 66.2v-54.4c-.3-5.2-2-9.1-5.2-11.8h29c-3.3 2.7-5 6.6-5.2 11.8V314h-57.7l-49.2-66v54.2c.2 5.2 2 9.1 5.1 11.8h-28.9c3.2-2.8 4.9-6.7 5.1-11.8v-55.8c-.2-5.1-2-9-5.1-11.8h62.1zm-780 38.3c6.4 0 6.9.2 10.2.7a26 26 0 0 1 8.4 2.4c4.2 2.1 6.3 5.6 6.4 10.6v11c-.2 5.5-2.8 9.7-7.8 12.5a27.4 27.4 0 0 1-9.2 3c-3.5.6-8.7.9-15.7.9H22.6c3.2-2.8 4.9-6.7 5.1-11.8v-55.8c-.2-5.1-1.9-9-5-11.8h95c7 0 12.3.3 15.8.9 3.5.5 6.6 1.5 9.2 3 5 2.8 7.6 7 7.8 12.6v7.9a13 13 0 0 1-1.6 7c-1 1.6-3 3-5.8 3.9a51.5 51.5 0 0 1-17.6 3zm-54-5.8H97c3.9 0 6.4-.5 7.7-1.6 1.3-1 2-3 2-6.1v-3.2c0-3.4-.6-5.6-1.8-6.8-1.1-1.1-3.4-1.7-6.7-1.7H71.6v19.4zm0 33.8h23c5.2 0 8.8-.6 10.6-2a3.2 3.2 0 0 0 1.3-1.7l.2-4v-3.7c0-2.8 0-4.7-.2-5.6a4.3 4.3 0 0 0-1.4-2.4c-.6-.6-1.5-1-2.6-1.1a57 57 0 0 0-6.6-.3H71.6V301zm133.9-66.3h53.1l43.4 70c2.1 3.1 6.4 6 10 8.6 2.6-2.7 4-6.4 4.2-11v-55.8c-.2-5.1-1.9-9-5-11.8h96.5c7 0 12.2.3 15.7.9 3.5.5 6.6 1.5 9.3 3 5 2.8 7.5 7 7.7 12.6v7.9a13 13 0 0 1-1.6 7c-1 1.6-3 3-5.8 3.9a62.9 62.9 0 0 1-19 3c6.4 0 8.3.2 11.6.7 3.3.4 6.1 1.2 8.4 2.4 4.2 2.1 6.3 5.6 6.4 10.6v11c-.2 5.5-2.8 9.7-7.8 12.5a27.4 27.4 0 0 1-9.1 3c-3.6.6-8.8.9-15.8.9H250.7c2-1.6 3.1-3.3 3.1-5.3 0-2.2-1-4.8-3.1-7.7l-5.7-8.5h-50.9l-7.6 10.8a10 10 0 0 0-2.2 5.5c0 1.3.8 3 2.3 5.2h-33.2a65.5 65.5 0 0 0 14.7-15l42.3-59.7a18.2 18.2 0 0 0-5-4.7zm32.7 45-17.3-26-17.3 26H238zm123.3-12.5h24c3.9 0 6.4-.5 7.7-1.6 1.3-1 2-3 2-6.1v-3.2c0-3.4-.7-5.6-1.8-6.8-1.1-1.1-3.4-1.7-6.7-1.7h-25.2v19.4zm0 33.8h21.5c5.2 0 8.8-.6 10.6-2a3.2 3.2 0 0 0 1.3-1.7l.2-4v-3.7c0-2.8 0-4.7-.3-5.6a4.3 4.3 0 0 0-1.3-2.4c-.6-.6-1.5-1-2.6-1.1a57.2 57.2 0 0 0-6.6-.3h-22.8V301zm224.4-66.2a25 25 0 0 0-5.9 3.4c-1.5 1.2-3.8 2.2-7 5.8l-38.1 39.9v18.4c.2 5.2 3.4 9.1 6.6 11.8h-57c3.2-2.7 6.3-6.6 6.6-11.8v-19.9l-34.2-35c-5.4-5.8-10-10-13.7-12.7h59c0 2.2.4 4 1.3 5.7.9 1.5 2.6 3.7 5.2 6.3l19.7 20.4 20.3-21.1c3-3.1 4.5-6 4.5-8.8l-.3-2.5h33zm3 0h55.5c-3.1 2.6-4.8 6.5-5 11.7v53h40c6.5 0 13-1 16.6-2.9l-3.8 17.5H588.7c3-2.8 4.7-6.7 5-11.8v-55.8c-.3-5 .5-6.5-1.3-8.5-.7-.8-3.6-3.3-3.6-3.3zm144 0h66.3c4.6 0 9 .5 13.3 1.7 4.3 1.1 7.7 2.7 10.4 4.7 4.4 3.1 6.6 8.5 6.7 16.2v34c0 7.7-2.3 13-6.7 16.2-2.7 2-6.1 3.6-10.4 4.7a50.5 50.5 0 0 1-13.3 1.8h-66.2a50.6 50.6 0 0 1-13.4-1.8 30.3 30.3 0 0 1-10.4-4.7c-4.4-3.1-6.6-8.6-6.7-16.2v-34c0-7.6 2.3-13 6.7-16.2 2.7-2 6.1-3.6 10.4-4.7 4.3-1.2 4.4-1.8 9-1.8h4.4zm14.9 22.3v34.6c0 3.4.5 5.7 1.5 7 1.7 1.5 5.2 2.3 10.2 2.3H774c4.9 0 8-.6 9.6-1.7 1.4-1.2 2.2-3.7 2.2-7.6V257c0-3.4-.5-5.7-1.5-7-1.8-1.5-5.2-2.3-10.3-2.3h-16.1c-4 0-6.7.6-8 1.9-1.4 1.3-2.1 3.7-2.1 7.4z"/>
</svg>