<?xml version="1.0" encoding="UTF-8" standalone="no"?>
<!-- Generator: Adobe Illustrator 13.0.0, SVG Export Plug-In . SVG Version: 6.00 Build 14948)  -->
<svg
   xmlns:dc="http://purl.org/dc/elements/1.1/"
   xmlns:cc="http://web.resource.org/cc/"
   xmlns:rdf="http://www.w3.org/1999/02/22-rdf-syntax-ns#"
   xmlns:svg="http://www.w3.org/2000/svg"
   xmlns="http://www.w3.org/2000/svg"
   xmlns:sodipodi="http://sodipodi.sourceforge.net/DTD/sodipodi-0.dtd"
   xmlns:inkscape="http://www.inkscape.org/namespaces/inkscape"
   version="1.0"
   id="Layer_1"
   x="0px"
   y="0px"
   width="210"
   height="140"
   viewBox="0 0 192.756 192.756"
   enable-background="new 0 0 192.756 192.756"
   xml:space="preserve"
   sodipodi:version="0.32"
   inkscape:version="0.45.1"
   sodipodi:docname="Buffy_the_Vampire_Slayer.svg"
   inkscape:output_extension="org.inkscape.output.svg.inkscape"
   sodipodi:docbase="C:\Users\Virgile\Desktop"><metadata
   id="metadata56"><rdf:RDF><cc:Work
       rdf:about=""><dc:format>image/svg+xml</dc:format><dc:type
         rdf:resource="http://purl.org/dc/dcmitype/StillImage" /></cc:Work></rdf:RDF></metadata><defs
   id="defs54">
	
	
	
	
	
	
	
	
	
	
	
	
	
	
	
	
	
	
	
	
	
	
	
	
</defs><sodipodi:namedview
   inkscape:window-height="575"
   inkscape:window-width="761"
   inkscape:pageshadow="2"
   inkscape:pageopacity="0.0"
   guidetolerance="10.0"
   gridtolerance="10.0"
   objecttolerance="10.0"
   borderopacity="1.0"
   bordercolor="#666666"
   pagecolor="#ffffff"
   id="base"
   width="210px"
   height="140px"
   inkscape:zoom="1.9558406"
   inkscape:cx="96.377998"
   inkscape:cy="96.377998"
   inkscape:window-x="138"
   inkscape:window-y="138"
   inkscape:current-layer="Layer_1" />

<g
   id="g2203"><path
     clip-rule="evenodd"
     d="M 161.73157,24.253517 L 160.26757,23.101141 C 158.14358,22.812336 155.45609,23.389947 152.24703,24.878077 L 147.81168,28.719329 C 146.06523,30.25583 144.88508,31.551898 144.13001,32.751222 L 142.38495,35.296408 C 141.5362,36.352041 141.11112,37.265405 141.2048,38.128976 C 140.54342,38.945598 140.44973,40.193293 140.73218,41.776743 L 141.2048,45.330613 L 136.58069,46.098864 C 135.9193,46.387669 136.01438,46.628103 136.67297,46.915486 C 137.14559,47.107548 137.05191,47.299611 136.39052,47.588416 C 136.29684,47.877222 136.29684,47.972542 136.58069,48.067862 L 137.24068,48.259924 L 137.05191,48.500358 L 141.62848,49.268609 L 142.85478,60.887687 C 144.31878,66.888577 145.49892,77.498971 146.44137,92.717445 C 146.34628,97.086515 146.53505,100.0144 147.10136,101.31189 C 147.00767,101.59785 147.00767,101.98482 147.29152,102.65633 C 147.38521,103.08741 147.19644,103.27947 146.72522,103.37621 L 145.59121,102.55959 C 145.3563,102.27078 145.16753,102.27078 145.07385,102.75165 C 145.3563,103.85708 145.07385,105.91997 144.22369,108.99298 C 143.5637,109.47384 143.5637,109.95471 144.13001,110.33741 L 145.68769,111.44 L 147.3866,111.39305 L 148.75552,110.72012 L 150.21812,108.99155 C 150.87951,108.36842 151.06688,107.59874 150.87951,106.92724 C 150.87951,106.3041 150.40829,105.91855 149.55814,105.8716 C 148.56675,105.53585 148.00185,105.24847 147.7194,104.91271 C 148.00185,104.04914 148.09693,102.89534 147.81308,101.50396 L 147.43415,98.046828 L 147.718,97.56596 L 147.718,96.750761 L 148.18922,91.565069 C 148.2829,89.500752 148.75552,87.917302 149.55814,86.716555 L 149.65182,86.42775 L 149.7469,86.235687 C 149.84059,84.266689 150.31181,81.338801 151.34933,77.402228 C 152.34071,73.560976 152.81333,70.584716 152.90702,68.520398 C 152.52808,67.08064 152.71825,65.400448 153.37824,63.43145 L 154.84224,58.486193 C 155.54977,57.717942 155.92591,56.757629 156.02099,55.558304 L 155.83222,52.29324 C 157.05991,49.940117 158.52252,48.500358 160.26757,47.877222 L 163.85416,47.108971 L 167.01568,45.428779 C 167.01568,45.093025 166.73322,44.660528 166.2606,44.324774 L 155.31346,43.845329 L 155.83222,34.291991 L 157.48359,32.371365 L 159.60898,30.978555 C 160.83527,33.091244 163.38294,34.195248 167.53584,34.291991 C 168.10214,34.195248 168.47968,33.812546 168.57336,33.139615 L 165.60062,30.260098 C 164.32678,29.012403 163.47663,28.003718 163.14663,27.138725 C 163.28926,26.65928 163.14663,26.226783 162.58173,25.650595 C 161.92034,25.070139 161.63789,24.590694 161.73157,24.253517 L 161.73157,24.253517 z "
     id="path7"
     style="fill-rule:evenodd" /><path
     clip-rule="evenodd"
     d="M 6.0651201,18.972506 C 6.0651201,19.645437 6.7265071,20.941504 8.0940261,22.910502 L -1.6268248,24.158197 C -2.1455871,24.590694 -3.1845101,24.973397 -4.740797,25.165459 L -8.2323052,26.02903 C -10.167526,26.12435 -12.3852,26.748909 -14.885327,27.901285 L -20.973443,30.590162 L -25.267565,33.998918 C -26.682626,35.391728 -27.014018,36.784537 -26.30509,38.224296 L -25.975095,39.425043 C -25.832471,39.904488 -25.550018,40.096551 -24.983714,39.809168 C -24.65372,40.096551 -24.558636,40.385356 -24.748803,40.769481 L -22.813582,40.817853 C -21.964825,41.681423 -21.398521,42.065549 -20.973443,42.065549 L -18.849454,41.008493 C -17.858073,40.81643 -17.432995,40.385356 -17.716847,39.615683 L -17.386852,39.904488 L -17.056858,40.193293 L -13.281499,38.945598 L -13.56535,38.609844 L -13.942886,38.225718 L -14.98041,38.033656 L -15.311803,38.945598 L -16.349328,38.466152 L -17.434394,38.225718 L -16.633179,37.265405 L -15.500571,36.497155 C -15.075493,35.585213 -15.500571,34.768591 -16.821947,34.00034 L -20.784676,32.944707 L -16.633179,30.97571 C -14.98041,30.159088 -13.376582,29.776385 -12.007664,29.679642 L -2.3357534,27.99945 L 7.9038598,27.2312 C 8.5638486,28.191513 8.9889261,29.5829 9.0826109,31.551898 L 9.6489148,36.159978 C 10.026451,37.457468 10.308904,39.329723 10.403987,41.873486 L 10.924147,47.586994 L 9.0840092,48.163182 L 3.4685119,49.075123 C -2.5245213,49.843374 -7.1947806,51.428246 -10.640145,53.972009 L -10.640145,54.499826 C -10.735229,55.076014 -10.357693,55.411768 -9.6026208,55.460139 L -7.7624827,55.748944 C -6.9598693,55.844264 -6.9598693,56.22839 -7.7624827,57.045012 L -6.2047975,58.005325 C -4.3646594,58.197387 -1.2982287,58.197387 2.9972911,58.005325 L 12.245523,58.29413 L 12.6706,58.629884 L 13.425672,64.583826 C 13.898291,66.983897 14.087059,68.951472 13.991976,70.392653 L -3.7494157,69.816466 C -10.638747,69.911786 -16.536697,70.584716 -21.208355,71.880783 C -26.774912,73.465656 -30.079051,75.434653 -31.164117,77.978416 C -31.257802,79.466546 -30.739039,80.523602 -29.512747,81.051418 C -26.681227,83.115736 -23.992333,84.363432 -21.490808,84.747557 L -13.563951,87.244371 L -18.376835,86.621235 C -25.454935,85.276796 -30.834123,83.404541 -34.420714,81.051418 C -33.900553,82.107052 -32.863029,83.115736 -31.2592,84.171369 L -27.390156,86.860246 L -29.230294,86.764926 L -30.929206,87.052309 L -24.748803,89.692814 C -24.277582,90.173682 -23.332344,90.461065 -21.964825,90.74987 C -20.595908,90.894984 -19.653466,91.277687 -19.180847,91.758555 L -7.3835485,93.53549 L 15.549661,95.215682 L 16.20965,95.69655 L 17.578567,105.53727 L 17.578567,106.40084 L 17.767335,107.40953 C 17.86102,108.1792 17.483484,108.46516 16.492103,108.1792 L 14.368114,109.47384 C 13.613042,110.04861 13.424274,110.72154 13.80181,111.44142 L 15.641948,113.55553 L 17.670854,115.2343 C 20.454832,115.85886 22.720047,115.28409 24.560185,113.6978 C 24.748953,112.4999 24.417561,111.05872 23.475119,109.37995 L 22.29497,109.47384 L 21.257445,109.23483 C 20.597457,105.34521 20.786225,101.79418 21.728666,98.719758 C 22.29497,98.864872 22.720047,99.439638 23.191268,100.30321 L 24.417561,102.07872 L 24.135108,98.14357 L 23.663887,97.086515 C 23.570202,96.654018 23.380036,96.269893 23.0025,96.07783 L 23.0025,95.30958 L 23.191268,94.68502 L 42.444202,92.812765 C 49.285992,91.565069 54.42887,90.459642 57.874235,89.308689 C 60.705755,88.492067 63.205881,87.147629 65.518638,85.180054 C 68.538926,82.684662 70.049069,79.850671 70.142754,76.585606 C 69.387682,69.913208 65.047418,64.727517 57.120562,61.27039 C 52.967666,59.494877 45.512031,57.525879 34.894882,55.558304 L 32.583523,55.077437 C 31.403374,55.077437 30.648302,54.933745 30.318307,54.501249 L 44.238197,52.099754 C 53.251517,49.748054 58.676848,46.098864 60.61207,40.913173 C 61.460826,39.617106 61.178374,37.840171 59.809456,35.48847 C 58.063003,31.74396 54.193959,28.719329 48.296009,26.462949 L 30.932153,23.389947 C 31.214606,21.613012 30.224623,20.365316 27.770639,19.548694 C 24.515441,18.491638 22.580219,17.676439 22.108999,17.196994 L 19.891325,15.612121 C 19.042568,14.651808 18.333639,14.123992 17.578567,13.931929 C 15.644745,13.547804 13.520755,13.835186 11.396766,14.843871 C 11.7757,15.996247 11.207998,16.811446 9.6517113,17.292314 C 7.621407,17.965244 6.442656,18.493061 6.0651201,18.972506 L 6.0651201,18.972506 z M 11.112915,27.615325 L 11.774302,29.103455 L 13.803208,47.010806 C 13.14322,47.107548 12.859368,46.915486 12.859368,46.434618 L 12.6706,45.330613 L 12.6706,40.529047 C 12.623059,38.608421 12.245523,37.07192 11.490451,36.063235 L 11.112915,27.615325 L 11.112915,27.615325 z M -15.971792,81.337378 C -17.718245,80.714242 -18.660686,79.753929 -18.850853,78.361119 C -18.095781,76.393544 -16.255643,74.857043 -13.189212,74.040421 L -5.1197313,72.647611 L 14.461799,74.135741 L 15.641948,79.465123 C 16.301937,81.626184 16.301937,83.401696 15.830716,84.794506 C 12.527976,85.178631 5.7798707,85.178631 -4.2709746,84.746135 C -5.9223447,84.554072 -7.8561676,84.074627 -10.168925,83.209633 L -15.971792,81.337378 L -15.971792,81.337378 z M 15.360893,58.629884 L 16.20965,58.917267 C 16.492103,60.549088 16.492103,62.422765 16.398418,64.630774 L 15.927197,70.391231 C 15.549661,69.143535 15.267209,67.269857 15.172126,64.726094 C 15.077042,62.13396 14.888274,60.260282 14.653363,59.109329 L 15.360893,58.629884 L 15.360893,58.629884 z M 28.194318,28.431947 C 29.374468,28.286833 30.318307,27.902707 30.741987,27.2312 C 37.67886,26.847074 43.104191,28.719329 47.257086,32.751222 C 48.719688,36.448783 47.068318,39.329723 42.207893,41.681423 C 40.27407,42.690108 37.395009,43.553678 33.809816,44.129866 L 25.032805,45.714739 C 25.032805,44.467043 25.41034,42.929119 26.070329,40.769481 C 26.777859,38.608421 27.061711,36.928229 26.966627,35.680533 L 26.684175,32.368519 C 26.59049,31.167772 26.070329,30.159088 25.221573,29.48758 L 25.221573,28.911392 L 28.194318,28.431947 L 28.194318,28.431947 z M 43.954346,62.949159 C 48.437235,65.013477 51.316296,67.174537 52.683815,69.335598 C 53.250119,71.207853 52.683815,72.983365 51.032445,74.616609 L 45.700799,78.169056 L 39.991617,80.425437 C 34.282435,78.073736 28.996932,75.623871 24.137905,73.080108 L 36.028888,76.296801 C 36.122573,75.720613 35.557667,75.241168 34.282435,74.857043 L 22.816529,71.209275 C 22.296368,67.752148 22.627761,63.718832 23.854053,58.918689 C 31.498457,59.301392 38.245164,60.597459 43.954346,62.949159 L 21.918832,76.488864 L 34.706114,81.721504 L 21.257445,84.554072 C 19.888528,82.68324 20.077296,79.945991 21.918832,76.488864 L 43.954346,62.949159 L 43.954346,62.949159 z "
     id="path9"
     style="fill-rule:evenodd" /><path
     clip-rule="evenodd"
     d="M 137.05331,42.354354 C 137.43084,41.297298 137.24207,40.62579 136.58209,40.433727 L 127.80507,40.097974 L 127.80507,34.00034 C 127.38,33.520895 127.19263,32.752645 127.19263,31.551898 C 127.28631,30.302779 127.00386,29.5829 126.53124,29.103455 L 127.00386,27.99945 C 126.62493,25.74307 127.71139,23.967557 130.40168,22.718439 C 131.15675,22.431056 131.67552,22.623119 131.95797,23.102564 L 132.90181,24.590694 C 132.61936,26.030452 133.46811,27.134457 135.40333,27.807387 C 136.77225,27.327942 137.33716,26.462949 137.24207,25.455687 C 136.39332,24.592117 135.40333,23.007244 134.36301,20.750864 C 133.37303,18.686546 132.23902,17.198416 131.24904,16.189732 L 126.15231,15.326161 L 124.49954,16.189732 C 123.83955,16.622229 123.41447,16.717549 123.03694,16.430166 L 121.57433,17.869924 C 117.75283,22.815182 115.5813,25.935132 114.82623,27.327942 C 112.70224,30.97571 111.7598,34.52958 112.13733,37.841593 L 112.51487,39.713848 L 112.3261,41.490783 C 110.39088,41.586103 108.92828,41.970229 107.79567,42.594788 C 107.46707,43.074233 107.56076,43.41141 108.1746,43.555101 C 108.64583,43.747164 108.64583,44.034546 107.98584,44.323352 C 107.65584,44.612157 107.74953,44.755848 108.1746,44.852591 C 108.64583,44.947911 108.74091,45.236716 108.36337,45.524099 L 113.08257,46.387669 C 113.17626,52.38856 113.64748,57.430559 114.26272,61.559195 C 115.11148,65.400448 115.48901,72.264908 115.30025,82.299114 C 115.01779,94.397638 115.01779,101.40579 115.11148,103.18415 L 115.20516,124.88296 C 116.00638,128.72279 116.479,133.76621 116.38531,140.24655 L 116.38531,155.89894 C 116.66776,157.14664 116.66776,159.30627 116.479,162.47602 C 116.29023,165.21327 116.57268,167.37148 117.23407,168.86103 L 117.32775,170.15568 C 117.51652,170.63655 117.32775,170.92535 116.85513,171.01925 L 115.72253,170.15568 C 115.39253,169.86972 115.20376,169.86972 115.11008,170.39753 C 115.39253,171.30948 115.48762,172.31816 115.20376,173.51749 L 114.25992,176.63744 C 113.73976,177.1183 113.73976,177.54938 114.16624,177.93208 L 115.72253,178.98771 L 117.51512,178.89382 L 118.88404,178.22089 L 120.34664,176.53927 C 120.91295,175.86634 121.10171,175.24463 121.00803,174.5717 C 121.00803,173.89877 120.53541,173.51606 119.68665,173.37095 L 117.75283,172.40921 C 118.13037,171.59544 118.13037,170.39469 117.75283,168.66613 C 117.51652,166.88777 117.51652,165.44801 117.75283,164.53749 L 118.31774,159.302 C 118.41282,157.14237 118.88404,155.41523 119.68665,154.21448 L 124.1234,83.879719 C 123.93463,81.718658 124.02972,77.30264 124.40585,70.485128 L 125.53846,57.234229 C 126.24739,56.322287 126.62353,54.450032 126.52984,51.714206 C 126.43616,49.169021 127.09615,47.488828 128.2763,46.433195 C 129.12505,45.521253 130.49397,44.753003 132.52288,44.225186 C 134.83563,43.555101 136.29823,42.97749 137.05331,42.354354 L 137.05331,42.354354 z "
     id="path11"
     style="fill-rule:evenodd" /><path
     clip-rule="evenodd"
     d="M 206.98415,144.47192 C 204.81261,144.37518 203.02002,143.99106 201.83987,143.22138 L 112.51627,141.25381 L 92.037041,141.92674 C 96.94361,142.98237 98.690063,143.51019 97.511312,143.60835 L 60.186992,141.35197 L 38.245164,141.35197 L 23.570202,142.59967 L -4.7421953,143.51161 L -6.0160295,143.70367 C -6.4886485,143.80042 -6.7711013,143.70367 -6.8647862,143.22281 L -6.0160295,142.31086 C -5.7335767,142.02206 -5.7335767,141.92674 -6.2047975,141.83 L -14.037969,141.11012 L -15.123035,142.31086 L -14.98041,143.70367 L -14.320422,144.95137 L -12.573968,146.15212 L -10.545062,146.63298 C -9.8836753,146.63298 -9.5075377,146.24886 -9.3187697,145.6243 L -8.4224714,143.9939 C -7.5737148,144.28271 -6.2047975,144.28271 -4.4597425,143.9939 C -2.6196045,143.7051 -1.2031456,143.7051 -0.30684736,143.9939 L 5.119882,144.47477 C 7.337556,144.56867 9.0826109,144.95279 10.310302,145.62572 L 79.720981,146.92321 L 171.68733,147.01711 L 187.44736,146.10517 L 203.48984,146.10517 C 204.71753,145.86616 206.98275,145.86616 210.28549,146.10517 L 218.1648,145.28855 C 218.63742,145.14343 218.87373,145.2416 218.96742,145.67409 L 218.1648,146.53766 C 217.78727,146.82362 217.83621,147.01569 218.30743,147.11243 L 226.09306,147.83231 L 227.17672,146.53766 L 227.08304,145.14343 L 226.47059,143.99248 C 224.53537,142.69499 223.30908,142.12022 222.69663,142.21412 C 222.03524,142.21412 221.56263,142.59967 221.37526,143.22281 C 221.18649,144.08638 220.90404,144.66541 220.43142,144.85605 C 219.6302,144.56724 218.25989,144.56724 216.51483,144.85605 C 214.67469,145.14201 213.25963,145.14201 212.36194,144.85605 L 206.98415,144.47192 L 206.98415,144.47192 z "
     id="path13"
     style="fill-rule:evenodd" /><path
     clip-rule="evenodd"
     d="M 103.40926,84.650815 L 104.49433,61.557772 C 104.21048,61.078327 103.31418,60.789522 101.85018,60.694202 L 93.545787,60.071065 C 92.508262,59.78226 91.423196,60.071065 90.384273,60.694202 L 87.931688,62.422765 C 87.979229,62.518085 87.979229,62.853839 87.74292,63.334707 C 87.50661,63.815575 87.74292,64.102958 88.355367,64.29502 C 88.639218,64.918157 89.299207,65.591088 90.290588,66.071955 C 92.508262,70.392653 92.414577,74.666403 89.960594,79.082421 L 86.79908,78.170479 C 85.525246,77.786354 84.487721,77.306908 83.873876,76.82604 L 81.561119,66.264018 L 80.523594,65.111642 C 80.052373,64.632197 80.004832,64.296443 80.239743,63.912318 C 79.720981,63.432873 79.437129,62.664622 79.437129,61.559195 L 79.154677,59.110752 C 78.588373,58.197387 79.060992,57.430559 80.428511,56.854372 L 83.872477,55.269499 C 83.777394,54.357557 82.551102,53.493987 80.238345,52.774108 C 80.238345,51.718474 79.530814,51.526412 77.973129,52.101177 L 75.284234,52.101177 C 73.537781,52.389982 72.405173,52.917799 72.122721,53.686049 C 70.943969,54.933745 71.226422,55.750367 72.877792,56.421875 L 76.840521,58.19881 L 77.311742,65.016322 C 77.406825,67.561508 77.311742,69.817888 76.840521,71.594823 C 76.369301,72.458394 76.274217,73.755884 76.462985,75.436076 C 76.651753,77.211588 76.651753,78.556027 76.369301,79.180586 L 76.746836,87.342537 C 77.124372,90.462488 78.304522,92.863982 80.427113,94.592546 L 83.304775,94.400483 L 85.899985,93.536913 C 87.362587,93.248107 88.449052,92.528228 89.109041,91.08847 C 89.864112,89.60034 90.760411,88.686975 91.893018,88.399593 C 92.883001,87.920147 93.403162,86.959834 93.733156,85.567024 C 93.969466,84.174215 94.53577,83.118582 95.384527,82.687508 C 95.525753,83.502707 95.855747,83.791512 96.18714,83.502707 C 96.564676,83.213901 96.847129,83.599449 96.942212,84.655083 L 98.499897,93.536913 C 99.254969,97.665548 99.537422,100.68876 99.254969,102.65918 C 99.773731,103.09025 99.72619,103.66502 98.829891,104.24263 L 96.753444,105.87302 C 96.282223,106.49758 96.659759,107.07377 97.649742,107.40953 L 99.867416,108.2731 C 101.99141,107.79223 103.31278,106.92866 103.784,105.63401 C 103.83154,104.96108 103.50155,104.52859 102.65139,104.2412 L 100.34004,103.56827 C 100.24635,103.37621 100.43372,103.18415 100.81126,103.08741 C 100.90914,98.62017 101.85158,92.42864 103.40926,84.650815 L 103.40926,84.650815 z "
     id="path15"
     style="fill-rule:evenodd" /><path
     clip-rule="evenodd"
     d="M 162.01402,93.627964 L 161.82526,94.68502 C 159.08882,96.07783 157.38991,96.989772 156.96483,97.662703 C 155.02961,100.20504 154.55699,102.26936 155.73714,103.85708 L 158.0485,104.3351 C 158.6148,104.43184 158.89726,104.72065 158.89726,105.15172 L 159.08742,106.20736 C 161.35124,108.75254 164.04153,109.85512 167.01428,109.56916 L 174.28114,108.36842 C 177.16021,107.88755 179.32894,107.07093 180.83908,105.91713 C 183.85797,104.71923 186.54827,102.65491 188.95471,99.91766 L 194.28635,92.427217 C 198.06171,85.658076 200.27939,78.553181 200.75061,70.919047 C 201.55322,69.335598 201.74199,66.790412 201.26937,63.430027 C 200.84429,59.9729 200.98692,57.429137 201.83567,55.844264 L 202.21461,52.099754 C 202.11953,50.659996 201.55322,49.748054 200.37447,49.075123 C 199.24046,47.971119 197.68418,47.25124 195.65527,46.770372 L 190.13486,46.914063 C 189.09733,46.818743 188.48349,47.106126 188.10595,47.777634 L 187.02089,49.554569 L 187.16351,55.555459 C 187.16351,58.291285 187.35228,60.355602 187.63613,61.748412 L 182.87079,68.853307 L 181.17187,59.396712 L 180.46295,57.524457 L 179.99173,55.556882 C 179.51911,53.972009 178.62281,52.916376 177.20775,52.387137 C 177.06512,51.09107 177.67897,48.930009 179.23665,45.905379 C 178.24527,44.657683 177.06512,44.033124 175.46129,44.033124 L 173.62255,44.417249 C 172.91363,44.609311 172.72486,44.849745 173.00871,45.329191 L 173.10239,46.000699 L 172.81994,46.768949 C 173.43379,47.680891 174.18886,48.161759 175.03762,48.065016 C 175.74654,48.353822 176.029,48.784895 175.74654,49.409455 L 175.27392,50.849213 C 175.03762,51.522144 174.47271,52.096909 173.62255,52.481034 L 171.16857,53.392976 C 171.96979,65.107374 173.10239,73.269325 174.66008,77.974148 L 175.55778,79.655763 C 175.84023,80.327271 176.31145,80.759768 176.97284,80.855088 C 179.80436,79.174895 181.92695,76.390698 183.29586,72.357383 L 188.10735,65.972367 L 191.69394,82.102784 C 192.5427,88.776605 190.89133,93.625119 186.73843,96.74507 C 184.52076,99.433947 179.89664,101.20946 172.91223,102.07303 L 165.31537,101.78707 C 162.38876,101.49826 160.26617,100.58632 159.08742,98.953079 L 162.48524,96.74507 C 163.94785,96.265625 164.7966,96.553007 165.07906,97.752332 C 165.31537,99.241884 165.97675,100.10545 167.01428,100.29752 C 167.43936,100.58632 167.91058,100.39426 168.47688,99.913392 C 168.9495,99.432524 169.37458,99.432524 169.75071,99.913392 C 169.46826,99.143719 169.8444,98.807965 170.88332,98.807965 L 173.101,98.522005 L 173.00731,98.041137 L 173.3387,97.657012 C 172.91223,97.368206 172.81854,97.080824 173.00731,96.648327 L 173.3387,95.592694 L 172.72486,95.113249 C 172.81854,94.921186 173.10239,94.825866 173.3387,94.825866 C 173.80992,94.009244 173.99869,93.048931 173.90361,92.040247 C 173.00591,92.040247 172.25224,92.232309 171.77962,92.711755 L 172.91223,93.144251 L 171.68594,94.007822 L 170.60087,93.815759 C 170.88332,93.239571 170.78964,92.711755 170.22333,92.135567 L 168.66565,90.647437 L 167.25059,91.367316 C 167.20305,91.848184 166.63814,92.230887 165.78659,92.519692 L 164.13522,93.528376 C 163.664,93.623696 163.14384,93.431634 162.48385,92.855446 C 162.20279,92.956457 162.01402,93.148519 162.01402,93.627964 L 162.01402,93.627964 z "
     id="path17"
     style="fill-rule:evenodd" /><path
     clip-rule="evenodd"
     d="M 6.5363408,113.55268 L 6.442656,113.55268 C 7.7164902,115.08919 8.3764789,117.53763 8.3764789,121.0417 L 8.3764789,125.69816 C 8.3764789,131.2196 8.0940261,134.62836 7.621407,135.82911 L 6.7251088,135.82911 C 6.1588049,134.4363 5.8763521,131.07449 5.8763521,125.69816 L 5.8763521,119.98465 L 2.9972911,119.98465 L 3.563595,121.85833 L 3.563595,126.75379 C 3.563595,132.27524 4.7437443,136.21181 7.1501863,138.56351 C 9.5566282,136.11507 10.735379,132.18134 10.735379,126.75379 L 10.735379,121.37746 C 10.735379,117.92175 9.3678603,115.28125 6.5363408,113.55268 L 6.5363408,113.55268 z "
     id="path19"
     style="fill-rule:evenodd" /><path
     clip-rule="evenodd"
     d="M 26.260495,118.21056 L 24.420357,119.98607 L 18.427324,119.98607 L 19.985009,124.9797 L 20.598855,122.05039 L 23.949137,121.18682 L 23.949137,125.41077 L 19.042568,127.7639 L 19.042568,138.56493 L 23.949137,136.69552 L 26.261894,138.56493 L 26.261894,118.21056 L 26.260495,118.21056 z M 23.947738,126.94585 L 23.947738,135.82911 L 21.447612,135.82911 L 21.447612,128.81811 L 23.947738,126.94585 L 23.947738,126.94585 z "
     id="path21"
     style="fill-rule:evenodd" /><path
     clip-rule="evenodd"
     d="M 34.37612,119.98607 L 34.894882,122.05039 L 34.894882,138.66167 L 37.301324,136.78942 L 37.301324,121.85975 L 39.802849,121.09008 L 39.802849,138.6631 L 42.304374,136.69552 L 42.304374,121.85975 L 44.663274,121.09008 L 44.663274,135.63989 C 44.663274,139.14396 44.050827,141.54404 42.823136,143.08054 L 42.916821,143.17443 C 45.795882,141.35197 47.163401,138.75842 47.163401,135.25292 L 47.163401,118.11382 L 45.229578,119.98607 L 34.37612,119.98607 L 34.37612,119.98607 z "
     id="path23"
     style="fill-rule:evenodd" /><path
     clip-rule="evenodd"
     d="M 63.018512,118.21056 L 60.989606,119.98607 L 55.091656,119.98607 L 55.657959,122.05039 L 55.657959,152.63245 L 58.064401,150.95084 L 58.064401,136.6941 L 63.018512,138.66167 L 63.018512,118.21056 L 63.018512,118.21056 z M 60.61207,121.1854 L 60.61207,135.82911 L 58.064401,135.82911 L 58.064401,121.76016 L 60.61207,121.1854 L 60.61207,121.1854 z "
     id="path25"
     style="fill-rule:evenodd" /><polygon
     transform="matrix(1.3982812,0,0,1.4226862,-38.384841,-40.736211)"
     clip-rule="evenodd"
     points="78.932,108.787 80.45,111.047 80.45,107.57 78.932,108.787 "
     id="polygon27"
     style="fill-rule:evenodd" /><polygon
     transform="matrix(1.3982812,0,0,1.4226862,-38.384841,-40.736211)"
     clip-rule="evenodd"
     points="78.796,124.715 80.45,126.029 80.45,112.971 78.392,112.971 78.796,114.354 78.796,124.715 "
     id="polygon29"
     style="fill-rule:evenodd" /><polygon
     transform="matrix(1.3982812,0,0,1.4226862,-38.384841,-40.736211)"
     clip-rule="evenodd"
     points="90.911,119.955 91.653,119.045 91.653,111.723 90.27,112.971 86.288,112.971 86.76,114.422 86.76,126.029 88.481,124.715 88.481,114.354 90,113.881 90.911,119.955 "
     id="polygon31"
     style="fill-rule:evenodd" /><path
     clip-rule="evenodd"
     d="M 102.65419,119.98607 L 96.849925,119.98607 L 97.416229,122.05039 L 97.416229,128.81953 C 97.416229,133.18718 98.218843,136.11649 99.868814,137.69994 L 104.6817,137.69994 L 104.6817,131.07591 L 102.93525,135.83053 L 100.5288,135.83053 C 100.05618,135.01391 99.773731,133.28534 99.773731,130.69321 L 104.6817,128.34009 L 104.6817,118.21198 L 102.65419,119.98607 L 102.65419,119.98607 z M 102.27805,127.28303 L 99.776528,129.10834 L 99.776528,121.85833 L 102.27805,121.1854 L 102.27805,127.28303 L 102.27805,127.28303 z "
     id="path33"
     style="fill-rule:evenodd" /><path
     clip-rule="evenodd"
     d="M 136.10947,121.08865 L 137.57207,126.75379 L 138.51591,125.69816 L 138.51591,118.20914 L 136.487,119.98465 L 131.25044,119.98465 L 131.86289,122.14429 L 131.86289,126.65989 L 136.58209,130.78568 C 136.58209,133.37782 136.39192,135.10638 135.9207,135.82911 L 134.17425,135.82911 L 134.17425,132.56404 L 131.86289,131.12144 L 131.86289,137.69851 L 136.58209,137.69851 C 138.23346,136.40387 139.08221,133.85868 139.08221,130.01885 L 134.17425,125.60141 L 134.17425,121.76158 L 136.10947,121.08865 L 136.10947,121.08865 z "
     id="path35"
     style="fill-rule:evenodd" /><path
     clip-rule="evenodd"
     d="M 149.46305,122.43309 C 149.46305,117.87338 150.12444,114.84733 151.35073,113.40757 C 148.47307,115.27983 147.10415,118.87922 147.10415,124.2086 L 147.10415,137.69851 L 150.03075,137.69851 L 149.46445,135.63704 L 149.46445,122.43309 L 149.46305,122.43309 z "
     id="path37"
     style="fill-rule:evenodd" /><path
     clip-rule="evenodd"
     d="M 163.05295,121.1854 L 163.05295,125.40935 L 158.14498,127.76247 L 158.14498,138.56351 L 163.14663,136.6941 L 165.41185,138.56351 L 165.41185,118.20914 L 163.57171,119.98465 L 157.58007,119.98465 L 159.09022,124.97828 L 159.79775,122.04897 L 163.05295,121.1854 L 163.05295,121.1854 z M 160.55142,135.82911 L 160.55142,128.81811 L 163.05155,126.94585 L 163.05155,135.82911 L 160.55142,135.82911 L 160.55142,135.82911 z "
     id="path39"
     style="fill-rule:evenodd" /><path
     clip-rule="evenodd"
     d="M 179.09543,119.98607 L 179.09543,135.83053 L 176.50162,135.83053 L 176.50162,119.98607 L 173.52887,119.98607 L 174.09378,121.95365 L 174.09378,138.66167 L 179.00174,136.6941 L 179.00174,146.14927 C 178.90806,149.41434 178.0579,151.95952 176.5953,153.64114 L 174.84885,150.85694 L 174.84885,155.99141 C 179.23805,153.30396 181.45573,148.69446 181.45573,142.30944 L 181.45573,118.11239 L 179.09543,119.98607 L 179.09543,119.98607 z "
     id="path41"
     style="fill-rule:evenodd" /><path
     clip-rule="evenodd"
     d="M 189.94889,122.05039 L 189.94889,128.81953 C 189.94889,133.18718 190.79764,136.11649 192.35533,137.69994 L 197.12207,137.69994 L 197.12207,131.07591 L 195.37562,135.83053 L 193.01532,135.83053 C 192.5441,135.01391 192.26024,133.28534 192.26024,130.69321 L 197.12207,128.34009 L 197.12207,118.21198 L 195.09316,119.98749 L 189.2889,119.98749 L 189.94889,122.05039 L 189.94889,122.05039 z M 194.85685,127.28303 L 192.26164,129.10834 L 192.26164,121.85833 L 194.85685,121.1854 L 194.85685,127.28303 L 194.85685,127.28303 z "
     id="path43"
     style="fill-rule:evenodd" /><polygon
     transform="matrix(1.3982812,0,0,1.4226862,-38.384841,-40.736211)"
     clip-rule="evenodd"
     points="178.583,119.955 179.359,119.045 179.359,111.723 177.941,112.971 173.993,112.971 174.432,114.422 174.432,126.029 176.153,124.715 176.153,114.354 177.672,113.881 178.583,119.955 "
     id="polygon45"
     style="fill-rule:evenodd" /><polygon
     transform="matrix(1.3982812,0,0,1.4226862,-38.384841,-40.736211)"
     clip-rule="evenodd"
     points="6.985,112.971 6.209,112.971 6.985,113.746 6.985,119.889 8.369,119.248 8.369,113.746 9.955,112.971 8.369,112.971 8.369,110.811 6.985,112.971 "
     id="polygon47"
     style="fill-rule:evenodd" /><path
     clip-rule="evenodd"
     d="M -18.660686,115.28125 L -17.245626,116.72101 L -17.245626,114.08192 C -20.784676,115.56863 -22.52973,118.01707 -22.52973,121.37888 L -22.52973,129.73147 C -21.869742,129.44551 -21.303438,129.15671 -20.689592,128.9177 L -20.689592,120.75432 L -18.660686,121.04313 L -18.660686,128.34009 C -18.754371,130.21234 -19.180847,131.41309 -20.123289,132.08602 L -20.123289,132.18276 C -17.858073,131.22102 -16.726863,129.82964 -16.726863,128.05413 L -16.726863,119.02576 L -18.284549,119.98749 L -20.595908,119.98749 C -20.595908,117.87338 -19.934521,116.24014 -18.660686,115.28125 L -18.660686,115.28125 z "
     id="path49"
     style="fill-rule:evenodd" /><path
     clip-rule="evenodd"
     d="M -13.187814,121.08865 L -13.187814,124.68947 C -13.187814,127.0426 -12.573968,128.5293 -11.157509,129.24918 L -7.2884654,129.24918 L -7.2884654,125.7949 L -8.7986091,128.33724 L -10.73383,128.33724 C -11.111366,127.85637 -11.252593,127.0426 -11.252593,125.59999 L -7.2898637,124.40209 L -7.2898637,119.11966 L -8.9873771,119.98323 L -13.659035,119.98323 L -13.187814,121.08865 L -13.187814,121.08865 z M -9.2236866,120.65758 L -9.2236866,123.8259 L -11.252593,124.78764 L -11.252593,121.0417 L -9.2236866,120.65758 L -9.2236866,120.65758 z "
     id="path51"
     style="fill-rule:evenodd" /></g></svg>