<?xml version="1.0" encoding="utf-8" ?><svg xmlns="http://www.w3.org/2000/svg" xmlns:xlink="http://www.w3.org/1999/xlink" width="2032" height="912" viewBox="0 0 2032 912"><path fill="#F8EEE1" d="M1656.54 311.118C1787.56 303.506 1899.87 403.724 1907.2 534.786C1914.53 665.849 1814.09 777.966 1683.03 785.013C1552.38 792.037 1440.7 691.95 1433.4 561.287C1426.09 430.624 1525.92 318.707 1656.54 311.118ZM1674.25 669.385C1823.67 659.508 1816.27 426.926 1666.47 428.156C1554.6 435.414 1523.79 576.9 1599.48 642.739C1620.19 660.673 1646.87 670.182 1674.25 669.385Z"/><path fill="#F8EEE1" d="M846.327 309.229C861.82 307.46 887.476 308.674 902.445 311.189C970.91 322.693 1019.05 352.693 1059.62 408.034C989.455 495.141 914.067 580.316 844.101 667.346C906.05 675.78 940.223 655.105 971.553 602.214C996.198 623.423 1017.49 649.441 1041.12 671.819C1047.16 677.544 1053.06 683.532 1058.86 689.504L1045.22 706.505C1033.45 720.008 1021.81 731.202 1007.64 742.016C926.597 803.893 808.429 804.946 727.695 742.142C563.868 614.7 625.216 328.06 846.327 309.229ZM766 604.959C770.97 598.606 775.867 592.197 780.69 585.732L852.956 490.01C866.632 472.013 884.335 449.963 896.757 431.558C881.431 428.843 868.696 427.481 852.922 429.06C824.248 432.851 798.272 447.927 780.754 470.947C751.292 509.633 751.824 560.526 766 604.959Z"/><path fill="#F8EEE1" d="M182.469 145.383C219.196 144.314 255.949 144.517 292.663 145.991C294.155 210.904 293 277.513 292.764 342.559C321.502 325.633 346.702 317.1 380.43 316.85C432.031 316.466 484.007 338.665 520.649 374.809C546.641 400.567 565.218 432.852 574.429 468.27C583.494 503.85 581.072 557.957 581.222 596.015L581.168 779.637L462.468 779.889C461.799 709.059 461.789 638.225 462.441 567.395L462.963 535.841C463.204 505.615 458.124 482.113 436.317 459.798C420.822 443.942 400.756 436.587 378.656 436.561C355.422 436.399 333.09 445.545 316.641 461.959C293.749 484.934 292.499 510.204 292.647 540.977C292.751 562.449 292.857 584.033 292.923 605.509L293.272 779.531C256.604 781.19 211.241 779.736 173.605 780.027L173.382 291.026L173.534 205.205C173.481 195.558 172.46 155.069 174.46 147.657C177.695 145.052 177.571 145.846 182.469 145.383Z"/><path fill="#F8EEE1" d="M1113.26 325.555C1122.52 325.015 1134.63 324.863 1143.73 325.556C1156.36 342.568 1168.92 360.559 1181.27 377.84C1192.4 367.283 1203.83 359.866 1216.92 352.204C1260.78 326.54 1300.87 326.416 1349.44 326.397L1420.94 326.611C1422.53 361.774 1422.52 409.383 1420.78 444.417C1403.74 445.232 1385.59 445.696 1368.55 444.73C1295.95 440.618 1233.71 449.027 1232.52 538.616C1232.25 618.488 1233.76 699.409 1232.45 779.073C1221.66 780.661 1200.79 779.993 1189.07 779.996L1113.13 780.015C1111.06 765.067 1112.06 725.856 1112.09 709.371L1112.18 578.267L1112.1 413.413C1112.09 391.099 1110.87 346.584 1113.26 325.555Z"/></svg>